<svg width="13" height="16" viewBox="0 0 13 16" fill="none" xmlns="http://www.w3.org/2000/svg">
<path fill-rule="evenodd" clip-rule="evenodd" d="M1.61755 6.71985C1.61755 3.95843 3.85613 1.71985 6.61755 1.71985C9.37895 1.71985 11.6176 3.95843 11.6176 6.71985C11.6176 8.95155 10.4255 10.9627 9.13285 12.446C8.49135 13.1821 7.83875 13.7723 7.32725 14.1759C7.07115 14.378 6.85505 14.5296 6.69775 14.628C6.66795 14.6466 6.64125 14.6627 6.61755 14.6765C6.59385 14.6627 6.56715 14.6466 6.53735 14.628C6.38005 14.5296 6.16395 14.378 5.90785 14.1759C5.39635 13.7723 4.74375 13.1821 4.10226 12.446C2.80963 10.9627 1.61755 8.95155 1.61755 6.71985ZM6.61755 0.719849C3.30384 0.719849 0.617554 3.40614 0.617554 6.71985C0.617554 9.30065 1.98582 11.5394 3.34836 13.103C4.03446 13.8903 4.73315 14.5228 5.28845 14.9609C5.56575 15.1798 5.81195 15.3538 6.00725 15.4759C6.10415 15.5365 6.19535 15.5886 6.27575 15.6274C6.31575 15.6467 6.36035 15.6663 6.40645 15.6821C6.44265 15.6945 6.52195 15.7198 6.61755 15.7198C6.71315 15.7198 6.79245 15.6945 6.82865 15.6821C6.87475 15.6663 6.91935 15.6467 6.95935 15.6274C7.03975 15.5886 7.13095 15.5365 7.22785 15.4759C7.42315 15.3538 7.66935 15.1798 7.94665 14.9609C8.50195 14.5228 9.20065 13.8903 9.88675 13.103C11.2493 11.5394 12.6176 9.30065 12.6176 6.71985C12.6176 3.40614 9.93125 0.719849 6.61755 0.719849ZM5.61755 6.71985C5.61755 6.16755 6.06525 5.71985 6.61755 5.71985C7.16985 5.71985 7.61755 6.16755 7.61755 6.71985C7.61755 7.27215 7.16985 7.71985 6.61755 7.71985C6.06525 7.71985 5.61755 7.27215 5.61755 6.71985ZM6.61755 4.71985C5.51295 4.71985 4.61755 5.61528 4.61755 6.71985C4.61755 7.82445 5.51295 8.71985 6.61755 8.71985C7.72215 8.71985 8.61755 7.82445 8.61755 6.71985C8.61755 5.61528 7.72215 4.71985 6.61755 4.71985Z" fill="#1F2026"/>
</svg>
